<?xml version="1.0" encoding="UTF-8"?>
<svg width="1440" height="650" viewBox="0 0 1440 650" fill="none" xmlns="http://www.w3.org/2000/svg">
  <!-- Simple World Map Outline -->
  <path d="M720,50 C850,80 900,100 1000,150 C1100,200 1200,250 1250,350 C1300,450 1250,550 1150,550 C1050,550 950,500 900,450 C850,400 800,350 720,350 C640,350 600,400 550,450 C500,500 450,550 400,550 C350,550 300,500 250,450 C200,400 150,350 100,300 C50,250 30,200 50,150 C70,100 100,80 150,100 C200,120 250,150 300,200 C350,250 400,300 450,350 C500,400 550,450 600,400 C650,350 700,300 720,250 C740,200 750,150 720,100 C690,50 650,30 600,20 C550,10 500,0 450,0 C400,0 350,10 300,20 C250,30 200,40 150,50 C100,60 50,70 0,80" stroke="#4B5563" stroke-width="2" fill="none"/>
  <!-- Add more continent outlines as needed -->
</svg>
