<?xml version="1.0" encoding="UTF-8"?>
<svg width="1440" height="650" viewBox="0 0 1440 650" fill="none" xmlns="http://www.w3.org/2000/svg">
  <!-- Background -->
  <rect width="1440" height="650" fill="#0F172A" fill-opacity="0.02"/>
  
  <!-- Grid Lines -->
  <path d="M0 162.5H1440" stroke="#0d9488" stroke-opacity="0.1" stroke-width="0.5"/>
  <path d="M0 325H1440" stroke="#0d9488" stroke-opacity="0.1" stroke-width="0.5"/>
  <path d="M0 487.5H1440" stroke="#0d9488" stroke-opacity="0.1" stroke-width="0.5"/>
  <path d="M360 0V650" stroke="#0d9488" stroke-opacity="0.1" stroke-width="0.5"/>
  <path d="M720 0V650" stroke="#0d9488" stroke-opacity="0.1" stroke-width="0.5"/>
  <path d="M1080 0V650" stroke="#0d9488" stroke-opacity="0.1" stroke-width="0.5"/>
  
  <!-- World Map Outline -->
  <path d="M1000 300C1000 300 980 310 970 315C960 320 950 330 940 335C930 340 920 345 910 345C900 345 890 340 880 335C870 330 860 325 850 325C840 325 830 330 820 335C810 340 800 345 790 345C780 345 770 340 760 335C750 330 740 325 730 325C720 325 710 330 700 335C690 340 680 345 670 345C660 345 650 340 640 335C630 330 620 325 610 325C600 325 590 330 580 335C570 340 560 345 550 345C540 345 530 340 520 335C510 330 500 325 490 325C480 325 470 330 460 335C450 340 440 345 430 345C420 345 410 340 400 335C390 330 380 325 370 325C360 325 350 330 340 335C330 340 320 345 310 345C300 345 290 340 280 335C270 330 260 325 250 325C240 325 230 330 220 335C210 340 200 345 190 345C180 345 170 340 160 335C150 330 140 325 130 325C120 325 110 330 100 335C90 340 80 345 70 345C60 345 50 340 40 335C30 330 20 325 10 325" 
        stroke="#0d9488" 
        stroke-opacity="0.5" 
        stroke-width="1" 
        fill="none" 
        stroke-dasharray="2 2"/>
  
  <!-- Continent Outlines (simplified) -->
  <path d="M500 200C520 210 540 215 560 210C580 205 600 200 620 200C640 200 660 205 680 210C700 215 720 220 740 220C760 220 780 215 800 210C820 205 840 200 860 200C880 200 900 205 920 210C940 215 960 220 980 220C1000 220 1020 215 1040 210C1060 205 1080 200 1100 200" 
        stroke="#0d9488" 
        stroke-opacity="0.3" 
        stroke-width="0.5" 
        fill="none"/>
        
  <path d="M300 400C320 390 340 385 360 390C380 395 400 400 420 400C440 400 460 395 480 390C500 385 520 380 540 380C560 380 580 385 600 390C620 395 640 400 660 400C680 400 700 395 720 390C740 385 760 380 780 380C800 380 820 385 840 390C860 395 880 400 900 400C920 400 940 395 960 390C980 385 1000 380 1020 380C1040 380 1060 385 1080 390C1100 395 1120 400 1140 400" 
        stroke="#0d9488" 
        stroke-opacity="0.3" 
        stroke-width="0.5" 
        fill="none"/>
        
  <path d="M200 500C220 490 240 485 260 490C280 495 300 500 320 500C340 500 360 495 380 490C400 485 420 480 440 480C460 480 480 485 500 490C520 495 540 500 560 500C580 500 600 495 620 490C640 485 660 480 680 480C700 480 720 485 740 490C760 495 780 500 800 500C820 500 840 495 860 490C880 485 900 480 920 480C940 480 960 485 980 490C1000 495 1020 500 1040 500C1060 500 1080 495 1100 490C1120 485 1140 480 1160 480C1180 480 1200 485 1220 490C1240 495 1260 500 1280 500" 
        stroke="#0d9488" 
        stroke-opacity="0.3" 
        stroke-width="0.5" 
        fill="none"/>
</svg>
