<svg width="200" height="80" viewBox="0 0 200 80" fill="none" xmlns="http://www.w3.org/2000/svg">
  <rect width="200" height="80" rx="8" fill="white"/>
  <path d="M40 40C40 28.9543 48.9543 20 60 20H140C151.046 20 160 28.9543 160 40C160 51.0457 151.046 60 140 60H60C48.9543 60 40 51.0457 40 40Z" fill="#E5E7EB"/>
  <path d="M65 40C65 36.6863 67.6863 34 71 34H129C132.314 34 135 36.6863 135 40C135 43.3137 132.314 46 129 46H71C67.6863 46 65 43.3137 65 40Z" fill="#9CA3AF"/>
  <path d="M80 30L90 50H70L80 30Z" fill="#4B5563"/>
  <circle cx="110" cy="40" r="10" fill="#4B5563"/>
  <rect x="125" y="30" width="10" height="20" rx="2" fill="#4B5563"/>
</svg>
